# xmcd
#
# Track frame offsets:
#	150
#	15210
#	30585
#	50016
#	69950
#	90766
#	109015
#	125983
#	143707
#	161982
#
# Disc length: 2435 seconds
#
# Revision: 0
# Processed by: cddbd v1.5.2PL0 Copyright (c) Steve Scherf et al.
# Submitted via: EasyCDDAExtractor 9.1.3.1
#
DISCID=7b09810a
DTITLE=Sakis Rouvas - Ola kala
DYEAR=2002
DGENRE=Greek
TTITLE0=01. Ola kala
TTITLE1=02. Oso zw
TTITLE2=03. Mia zwh mazi
TTITLE3=04. Kati omorfo
TTITLE4=05. Yparxeis
TTITLE5=06. Aspro mauro
TTITLE6=07. Pou 8a pas
TTITLE7=08. Disco Girl
TTITLE8=09. 8a er8ei h stigmh
TTITLE9=10. An m' akous
EXTD=
EXTT0=
EXTT1=
EXTT2=
EXTT3=
EXTT4=
EXTT5=
EXTT6=
EXTT7=
EXTT8=
EXTT9=
PLAYORDER=
